<svg xmlns="http://www.w3.org/2000/svg" viewBox="0 0 40 33.9"><path fill="#bfbfbf" d="M-10 1.9h3.9v4.5H-10z"/><path fill="#ff3c80" d="M-10.1 7.7h3.9v4.5h-3.9z"/><path fill="#bfbfbf" d="M6.9 19.1c-.2 0-.3-.1-.3-.3V4.5C6.6 3.2 7.7 2 9.1 2h.3c.2 0 .2.2.1.3-.4.7-.6 1.4-.7 2.1-.1 1 .3 2 1.1 2.8.2.2.6.2.8 0l4.9-4.9c.2-.2.2-.6 0-.8C14.8.8 14 .4 13 .4c-.8 0-1.5.3-2.2.7-.1.1-.3.1-.5 0C9.9 1 9.5 1 9.1 1 7.2 1 5.7 2.4 5.5 4.2v14.6c0 .2-.1.3-.3.3H3.9c-.3 0-.5.2-.5.5s.2.5.5.5h1.4c.2 0 .3.1.3.3v4.1c0 2.2 1.2 4.2 3 5.2.2.1.3.2.3.4v2.6c0 .3.2.5.5.5s.5-.2.5-.5v-2.2c0-.1.2-.2.3-.2.4.1.9.2 1.4.2H28c.5 0 .9-.1 1.4-.2.1 0 .3.1.3.2v2.2c0 .3.2.5.5.5s.5-.2.5-.5v-2.6c0-.2.1-.3.3-.4 1.8-1 3-3 3-5.2v-4.1c0-.2.1-.3.3-.3h1.4c.3 0 .5-.2.5-.5s-.2-.5-.5-.5zm4-16.6c.6-.6 1.4-1 2.1-1 .4 0 .8.1 1.1.3.1.1.1.2 0 .3l-3.6 3.6c-.1.1-.3.1-.4-.1-.1-.3-.2-.7-.2-1.1.1-.7.4-1.4 1-2zM33 24.6c0 2.7-2.2 4.9-4.9 4.9H11.6c-2.7 0-4.9-2.2-4.9-4.9v-4.1c0-.2.1-.3.3-.3h25.8c.2 0 .3.1.3.3v4.1z"/></svg>