<svg xmlns="http://www.w3.org/2000/svg" viewBox="0 0 40 27.1"><path fill="#bfbfbf" d="M-10 1.9h3.9v4.5H-10z"/><path fill="#ff3c80" d="M-10.1 7.7h3.9v4.5h-3.9z"/><path fill="#bfbfbf" d="M36.2 12.7c-.2 0-.3-.1-.3-.3v-11c0-.3-.3-.6-.6-.6H4.5c-.3 0-.6.3-.6.6v11c0 .2-.1.3-.3.3h-.9c-.3 0-.6.3-.6.6v9.5c0 .3.3.6.6.6h.9c.2 0 .3.1.3.3v2.7c0 .3.3.6.6.6s.6-.3.6-.6v-2.7c0-.2.1-.3.3-.3h29c.2 0 .3.1.3.3v2.7c0 .3.3.6.6.6s.6-.3.6-.6v-2.7c0-.2.1-.3.3-.3h.9c.3 0 .6-.3.6-.6v-9.5c0-.3-.3-.6-.6-.6zM5.1 2.3c0-.1.1-.3.3-.3h29c.2 0 .3.1.3.3v10.1c0 .2-.1.3-.3.3h-.6c-.2 0-.3-.1-.3-.3v-5c0-.3-.3-.6-.6-.6H21.1c-.3 0-.6.3-.6.6v5c0 .2-.1.3-.3.3h-.6c-.2 0-.3-.1-.3-.3v-5c0-.3-.3-.6-.6-.6H6.9c-.4 0-.6.2-.6.6v5c0 .2-.1.3-.3.3h-.6c-.2 0-.3-.1-.3-.3zM32 8c.2 0 .3.1.3.3v4.1c0 .2-.1.3-.3.3H22c-.2 0-.3-.1-.3-.3V8.3c0-.2.1-.3.3-.3zM17.8 8c.2 0 .3.1.3.3v4.1c0 .2-.1.3-.3.3h-10c-.2 0-.3-.1-.3-.3V8.3c0-.2.1-.3.3-.3zm18.7 13.9c0 .2-.1.3-.3.3H3.6c-.2 0-.3-.1-.3-.3v-1.8c0-.2.1-.3.3-.3h32.6c.2 0 .3.1.3.3zm0-3.6c0 .2-.1.3-.3.3H3.6c-.2 0-.3-.1-.3-.3v-4.1c0-.2.1-.3.3-.3h32.6c.2 0 .3.1.3.3z"/></svg>