<svg enable-background="new 0 0 42.4 44.1" viewBox="0 0 42.4 44.1" xmlns="http://www.w3.org/2000/svg"><g fill="#333"><path d="m33.3 41.1h-24c-3.8 0-7.3-3-7.8-6.8l-1.2-8.1c0-.3 0-.6.2-.8s.5-.3.8-.3h40c.3 0 .6.1.8.3s.3.5.2.8l-1.2 8.1c-.5 3.8-4 6.8-7.8 6.8zm-30.9-14 1 6.9c.4 2.8 3.1 5.1 5.9 5.1h24c2.8 0 5.5-2.3 5.9-5.1l1-6.9z"/><path d="m6.3 44.1c-.1 0-.2 0-.3-.1-.5-.2-.8-.7-.6-1.3l1-3c.2-.5.7-.8 1.3-.6.5.2.8.7.6 1.3l-1 3c-.2.4-.6.7-1 .7zm30 0c-.4 0-.8-.3-.9-.7l-1-3c-.2-.5.1-1.1.6-1.3s1.1.1 1.3.6l1 3c.2.5-.1 1.1-.6 1.3-.2.1-.3.1-.4.1zm-5-44c-3.2 0-6.2 1.7-7.8 4.5l-.4.6c-2.2.5-3.8 2.5-3.8 4.8 0 .6.4 1 1 1h8c.6 0 1-.4 1-1 0-2.4-1.6-4.3-3.8-4.8 1.3-1.9 3.5-3.2 5.8-3.2 3.9 0 7 3.1 7 7v17h2v-17c0-4.9-4.1-8.9-9-8.9zm-4.2 9h-5.7c.4-1.2 1.5-2 2.8-2 1.4 0 2.5.8 2.9 2zm-7.8 13c-.6 0-1-.4-1-1v-2c0-.6.4-1 1-1s1 .4 1 1v2c0 .6-.5 1-1 1z"/><path d="m29.3 23.1c-.6 0-1-.4-1-1v-2c0-.6.4-1 1-1s1 .4 1 1v2c0 .6-.5 1-1 1zm-7-7c-.6 0-1-.4-1-1v-2c0-.6.4-1 1-1s1 .4 1 1v2c0 .6-.5 1-1 1zm5 1c-.6 0-1-.4-1-1v-2c0-.6.4-1 1-1s1 .4 1 1v2c0 .6-.5 1-1 1zm-3 6c-.6 0-1-.4-1-1v-2c0-.6.4-1 1-1s1 .4 1 1v2c0 .6-.5 1-1 1z"/></g></svg>