<svg enable-background="new 0 0 40 33.9" viewBox="0 0 40 33.9" xmlns="http://www.w3.org/2000/svg"><path d="m-10 1.9h3.9v4.5h-3.9z" fill="#bfbfbf"/><path d="m-10.1 7.7h3.9v4.5h-3.9z" fill="#ff3c80"/><path d="m6.9 19.1c-.2 0-.3-.1-.3-.3v-14.3c0-1.3 1.1-2.5 2.5-2.5h.3c.2 0 .2.2.1.3-.4.7-.6 1.4-.7 2.1-.1 1 .3 2 1.1 2.8.2.2.6.2.8 0l4.9-4.9c.2-.2.2-.6 0-.8-.8-.7-1.6-1.1-2.6-1.1-.8 0-1.5.3-2.2.7-.1.1-.3.1-.5 0-.4-.1-.8-.1-1.2-.1-1.9 0-3.4 1.4-3.6 3.2v14.6c0 .2-.1.3-.3.3h-1.3c-.3 0-.5.2-.5.5s.2.5.5.5h1.4c.2 0 .3.1.3.3v4.1c0 2.2 1.2 4.2 3 5.2.2.1.3.2.3.4v2.6c0 .3.2.5.5.5s.5-.2.5-.5v-2.2c0-.1.2-.2.3-.2.4.1.9.2 1.4.2h16.4c.5 0 .9-.1 1.4-.2.1 0 .3.1.3.2v2.2c0 .3.2.5.5.5s.5-.2.5-.5v-2.6c0-.2.1-.3.3-.4 1.8-1 3-3 3-5.2v-4.1c0-.2.1-.3.3-.3h1.4c.3 0 .5-.2.5-.5s-.2-.5-.5-.5zm4-16.6c.6-.6 1.4-1 2.1-1 .4 0 .8.1 1.1.3.1.1.1.2 0 .3l-3.6 3.6c-.1.1-.3.1-.4-.1-.1-.3-.2-.7-.2-1.1.1-.7.4-1.4 1-2zm22.1 22.1c0 2.7-2.2 4.9-4.9 4.9h-16.5c-2.7 0-4.9-2.2-4.9-4.9v-4.1c0-.2.1-.3.3-.3h25.8c.2 0 .3.1.3.3v4.1z" fill="#bfbfbf"/></svg>