<svg enable-background="new 0 0 47 33" viewBox="0 0 47 33" xmlns="http://www.w3.org/2000/svg"><g fill="#fff"><path d="m21.5 17.7h-11c-.6 0-1-.4-1-1v-9c0-.6.4-1 1-1h11c.6 0 1 .4 1 1v9c0 .6-.4 1-1 1zm-10-2h9v-7h-9z"/><path d="m21.5 13.7h4v2h-4z"/><path d="m46.5 22.6v-.2c0-.1-.1-.1-.1-.2v-.1l-5.8-7.7v-10.7c0-1.7-1.3-3-3-3h-28c-1.7 0-3 1.3-3 3v10.7l-5.8 7.7v.1c0 .1-.1.1-.1.2v9.3c0 .6.4 1 1 1h3c.4 0 .7-.2.9-.6l1.7-3.4h32.8l1.7 3.4c.2.3.5.6.9.6h3c.6 0 1-.4 1-1v-9c-.2 0-.2-.1-.2-.1zm-38.5-6.9h2.5v-2h-2v-10c0-.6.4-1 1-1h28c.6 0 1 .4 1 1v10h-2v2h2.5l4.5 6h-40zm36.5 15h-1.4l-1.7-3.4c-.2-.3-.5-.6-.9-.6h-34c-.4 0-.7.2-.9.6l-1.7 3.4h-1.4v-7h42z"/><path d="m36.5 17.7h-11c-.6 0-1-.4-1-1v-9c0-.6.4-1 1-1h11c.6 0 1 .4 1 1v9c0 .6-.4 1-1 1zm-10-2h9v-7h-9z"/></g></svg>