<svg enable-background="new 0 0 40 27.1" viewBox="0 0 40 27.1" xmlns="http://www.w3.org/2000/svg"><path d="m-10 1.9h3.9v4.5h-3.9z" fill="#bfbfbf"/><path d="m-10.1 7.7h3.9v4.5h-3.9z" fill="#ff3c80"/><path d="m36.2 12.7c-.2 0-.3-.1-.3-.3v-11c0-.3-.3-.6-.6-.6h-30.8c-.3 0-.6.3-.6.6v11c0 .2-.1.3-.3.3h-.9c-.3 0-.6.3-.6.6v9.5c0 .3.3.6.6.6h.9c.2 0 .3.1.3.3v2.7c0 .3.3.6.6.6s.6-.3.6-.6v-2.7c0-.2.1-.3.3-.3h29c.2 0 .3.1.3.3v2.7c0 .3.3.6.6.6s.6-.3.6-.6v-2.7c0-.2.1-.3.3-.3h.9c.3 0 .6-.3.6-.6v-9.5c0-.3-.3-.6-.6-.6zm-31.1-10.4c0-.1.1-.3.3-.3h29c.2 0 .3.1.3.3v10.1c0 .2-.1.3-.3.3h-.6c-.2 0-.3-.1-.3-.3v-5c0-.3-.3-.6-.6-.6h-11.8c-.3 0-.6.3-.6.6v5c0 .2-.1.3-.3.3h-.6c-.2 0-.3-.1-.3-.3v-5c0-.3-.3-.6-.6-.6h-11.8c-.4 0-.6.2-.6.6v5c0 .2-.1.3-.3.3h-.6c-.2 0-.3-.1-.3-.3zm26.9 5.7c.2 0 .3.1.3.3v4.1c0 .2-.1.3-.3.3h-10c-.2 0-.3-.1-.3-.3v-4.1c0-.2.1-.3.3-.3zm-14.2 0c.2 0 .3.1.3.3v4.1c0 .2-.1.3-.3.3h-10c-.2 0-.3-.1-.3-.3v-4.1c0-.2.1-.3.3-.3zm18.7 13.9c0 .2-.1.3-.3.3h-32.6c-.2 0-.3-.1-.3-.3v-1.8c0-.2.1-.3.3-.3h32.6c.2 0 .3.1.3.3zm0-3.6c0 .2-.1.3-.3.3h-32.6c-.2 0-.3-.1-.3-.3v-4.1c0-.2.1-.3.3-.3h32.6c.2 0 .3.1.3.3z" fill="#bfbfbf"/></svg>