<svg enable-background="new 0 0 612 612" viewBox="0 0 612 612" xmlns="http://www.w3.org/2000/svg"><path d="m578.766 51.487v-.895h-545.832v.895c-17.662 1.214-30.839 15.266-32.934 32.321v358.726c0 6.898 1.795 12.712 4.791 17.949 6.893 12.137 17.068 18.269 31.14 18.269h197.012v49.695h-37.425c-9.281 0-16.467 7.218-16.467 16.48s7.186 16.479 16.467 16.479h220.666c9.281 0 16.768-7.218 16.768-16.479 0-9.263-7.486-16.48-16.768-16.48h-37.425v-49.695h197.011c14.078 0 24.343-6.132 31.14-18.269 3.085-5.493 5.091-11.37 5.091-17.949v-358.725c-2.096-17.056-16.168-31.108-33.235-32.322zm0 35.324v355.724c0 2.108-.895 3.002-2.996 3.002h-539.84c-2.095 0-2.996-.894-2.996-3.002v-358.726h545.831v3.002z" fill="#fff"/></svg>